<svg xmlns="http://www.w3.org/2000/svg" width="24" height="24" viewBox="0 0 24 24" fill="none" stroke="#D86731" stroke-width="2" stroke-linecap="round" stroke-linejoin="round" class="lucide lucide-planet"><path d="M17.5 8.5a6.5 6.5 0 1 1-13 0 6.5 6.5 0 0 1 13 0Z"/><path d="M18.5 4c.9 2.3 1.4 4.6 1.5 7 .1 2.4-.4 4.7-1.5 7"/><path d="M8.5 3.5c-2.3.9-4.6 1.4-7 1.5-2.4.1-4.7-.4-7-1.5"/><path d="M8.5 20.5c-2.3-.9-4.6-1.4-7-1.5-2.4-.1-4.7.4-7 1.5"/><path d="M15.5 3.5c2.3.9 4.6 1.4 7 1.5 2.4.1 4.7-.4 7-1.5"/><path d="M15.5 20.5c2.3-.9 4.6-1.4 7-1.5 2.4-.1 4.7.4 7 1.5"/></svg>